<svg width="199" height="20" viewBox="0 0 199 20" fill="none" xmlns="http://www.w3.org/2000/svg">
<path d="M21.3875 19.898H42.7748V0C37.34 0.0047536 32.1095 2.0615 28.1397 5.75484C24.1699 9.44818 21.7567 14.5029 21.3875 19.898Z" fill="white"/>
<path d="M21.3874 19.898H0V0C5.43484 0.0047536 10.6653 2.0615 14.6351 5.75484C18.6049 9.44818 21.0181 14.5029 21.3874 19.898Z" fill="white"/>
<path d="M97.648 0.0873413V19.9854H89.8076V9.37632L84.1156 18.1945H79.1673L73.4754 9.37632V19.9951H65.6204V0.0970571H74.6128L81.6123 11.3079L88.641 0.0970571L97.648 0.0873413Z" fill="white"/>
<path d="M135.319 0.0873413L123.06 12.2931V19.9951H115.2V12.2931L102.946 0.0873413H112.809L119.128 7.139L125.408 0.0873413H135.319Z" fill="white"/>
<path d="M160.269 7.94464C161.161 7.9439 162.049 8.05312 162.914 8.2698C163.727 8.47239 164.493 8.83179 165.169 9.32779C165.834 9.8307 166.368 10.4867 166.724 11.2399C167.133 12.1465 167.329 13.1341 167.298 14.1276C167.33 15.0962 167.134 16.0588 166.724 16.9376C166.367 17.6636 165.832 18.2879 165.169 18.7527C164.493 19.2193 163.732 19.5491 162.928 19.7233C162.064 19.9102 161.183 20.003 160.299 19.9999H146.081C145.193 20.0028 144.312 19.8381 143.485 19.5146C142.683 19.2049 141.941 18.7582 141.293 18.1945C140.644 17.6297 140.105 16.9502 139.703 16.1902C139.287 15.4017 139.014 14.5455 138.897 13.6617H146.893C147.101 14.1203 147.439 14.5083 147.865 14.7779C148.292 15.0467 148.789 15.1866 149.294 15.1807H153.668C154.748 15.2034 155.909 15.2147 157.154 15.2147C157.341 15.212 157.528 15.1958 157.713 15.1662C157.948 15.1348 158.175 15.0608 158.383 14.9478C158.607 14.8285 158.803 14.6631 158.957 14.4624C159.12 14.2217 159.207 13.9377 159.207 13.6471C159.207 13.3565 159.12 13.0726 158.957 12.8318C158.798 12.6356 158.603 12.4709 158.383 12.3465C158.169 12.2362 157.937 12.1623 157.698 12.1281C157.518 12.1034 157.336 12.0889 157.154 12.0844H145.711C144.825 12.0863 143.941 11.9771 143.082 11.7592C142.273 11.5556 141.512 11.1962 140.841 10.7012C140.178 10.2034 139.645 9.55438 139.285 8.8085C138.877 7.90725 138.68 6.92433 138.712 5.93543C138.679 4.96522 138.876 4.00095 139.285 3.12058C139.646 2.3964 140.18 1.77275 140.841 1.3055C141.515 0.83582 142.277 0.505785 143.082 0.334862C143.945 0.143642 144.827 0.0492362 145.711 0.0533841H159.832C160.722 0.0505181 161.604 0.215167 162.432 0.538702C163.233 0.850725 163.975 1.29718 164.625 1.85877C165.269 2.42056 165.806 3.0948 166.209 3.84856C166.629 4.63108 166.904 5.48266 167.021 6.36251L159.025 6.39647C158.815 5.93398 158.478 5.54029 158.053 5.26083C157.628 4.98457 157.131 4.83941 156.624 4.84347H148.851C148.66 4.84686 148.468 4.86145 148.278 4.88714C148.038 4.91994 147.807 4.99381 147.593 5.10553C147.37 5.22859 147.174 5.39339 147.014 5.59084C146.851 5.83161 146.764 6.11558 146.764 6.40619C146.764 6.6968 146.851 6.98075 147.014 7.22152C147.168 7.42988 147.372 7.59666 147.607 7.70684C147.83 7.80708 148.065 7.87568 148.307 7.91066C148.488 7.93547 148.669 7.95006 148.851 7.95435L160.269 7.94464Z" fill="white"/>
<path d="M199 0.0873413V5.5229H189.633V19.9951H181.793V5.5229H172.46V0.0873413H199Z" fill="white"/>
</svg>
